<?xml version="1.0" encoding="UTF-8"?><svg id="uuid-89d27071-55f4-49ef-9edf-f1f5c0bde202" data-name="Layer 2" xmlns="http://www.w3.org/2000/svg" viewBox="0 0 384.57 107.26"><g id="uuid-089ffa92-1042-490d-ac16-29bb8ae7f784" data-name="Layer 1"><polygon points="104.15 0 97.17 13.97 46.71 13.97 32.76 41.92 48.29 41.92 38.97 60.56 63.82 41.92 48.29 41.92 55.28 27.95 105.74 27.95 0 107.26 25.68 55.9 10.15 55.9 38.07 0 104.15 0" fill="#fff" stroke-width="0"/><path d="m158.22,57.99c0,10.11-3.54,12.81-16.44,12.81s-17.27-3.12-17.27-11.54V24.95c0-8.34,4.72-11.54,17.02-11.54s16.69,3.37,16.69,13.23v5.56h-12.56v-5.9c0-2.52-.92-3.28-4.13-3.28-2.7,0-3.54.84-3.54,3.54v32.53c0,1.52,1.09,2.1,3.62,2.1,2.78,0,4.05-.59,4.05-1.85v-8.85h-3.96v-10.53h16.52v18.03Z" fill="#fff" stroke-width="0"/><path d="m167.89,14h21.15l8.59,56.21h-13.23l-1.68-13.48h-8.43l-1.68,13.48h-13.23l8.51-56.21Zm10.7,7.75h-.17l-3.03,25.37h6.23l-3.03-25.37Z" fill="#fff" stroke-width="0"/><path d="m200.2,14h16.1c14.08,0,17.86,2.86,17.86,13.4v6.74c-.08,7.5-2.27,10.37-8.85,11.46v.17c7.08,1.43,8.68,3.12,8.85,9.1v15.34h-12.97v-16.1c0-2.44-1.43-3.28-5.82-3.28h-2.19v19.38h-12.98V14Zm12.98,27.14h2.53c4.46,0,5.48-.92,5.48-4.88v-8.43c0-2.95-1.18-4.22-4.05-4.22h-3.96v17.53Z" fill="#fff" stroke-width="0"/><path d="m238.74,14h12.98v46.1h12.64v10.11h-25.62V14Z" fill="#fff" stroke-width="0"/><path d="m274.56,14h21.15l8.59,56.21h-13.23l-1.68-13.48h-8.43l-1.68,13.48h-13.23l8.51-56.21Zm10.7,7.75h-.17l-3.03,25.37h6.23l-3.03-25.37Z" fill="#fff" stroke-width="0"/><path d="m317.89,26.38h-.17l.76,43.82h-11.97V14h18.96l9.52,43.82.17-.17-.92-43.66h12.05v56.21h-18.96l-9.44-43.82Z" fill="#fff" stroke-width="0"/><path d="m351.62,14h16.94c13.15,0,15.76,3.46,16.01,21.07v14.07c-.08,17.44-2.95,21.15-16.01,21.07h-16.94V14Zm12.98,46.1h3.54c2.79,0,3.46-1.01,3.46-5.39v-25.62c0-4.38-.67-5.48-3.46-5.48h-3.54v36.5Z" fill="#fff" stroke-width="0"/><path d="m179.55,79.21h-6.44v14.99h2.37v-5.45h3.29c3.06,0,4.19-1.31,4.19-4.84,0-2.19-.39-4.69-3.41-4.69Zm-.61,7.19h-3.46v-4.85h3.67c1.08,0,1.45,0,1.45,2.39s-.41,2.46-1.66,2.46Z" fill="#fff" stroke-width="0"/><path d="m197.49,79.06c-2.22,0-3.44.29-4.24,1-.87.77-1.24,2.05-1.24,4.28v4.72c0,4.1,1.22,5.28,5.45,5.28,2.25,0,3.44-.28,4.24-1.01.88-.78,1.26-2.06,1.26-4.27v-4.72c0-2.03-.32-3.28-1.03-4.07-.8-.87-2.04-1.21-4.44-1.21Zm3.1,5.36v4.55c0,2.86-.17,3.03-3.1,3.03s-3.11-.17-3.11-3.03v-4.55c0-2.85.17-3.02,3.11-3.02s3.1.17,3.1,3.02Z" fill="#fff" stroke-width="0"/><polygon points="225.04 90.41 222.27 79.21 219.43 79.21 216.67 90.42 213.73 79.21 211.38 79.21 215.33 94.2 218.1 94.2 220.85 83.05 223.63 94.2 226.4 94.2 230.33 79.21 227.98 79.21 225.04 90.41" fill="#fff" stroke-width="0"/><polygon points="239.24 94.2 247.77 94.2 247.77 91.86 241.6 91.86 241.6 87.61 247.49 87.61 247.49 85.27 241.6 85.27 241.6 81.55 247.81 81.55 247.81 79.21 239.24 79.21 239.24 94.2" fill="#fff" stroke-width="0"/><path d="m267.55,83.76c0-3.36-1.02-4.55-3.92-4.55h-6.27v14.99h2.37v-5.62h3.04c1.97.02,2.19.41,2.19,1.93v3.69h2.36v-4.32c-.01-.79-.14-1.82-.96-2.47.97-.72,1.19-1.96,1.19-3.65Zm-2.36-.08c0,2.37-.7,2.56-1.54,2.56h-3.92v-4.68h3.5c1.38,0,1.58.16,1.71.39.09.15.25.58.25,1.73Z" fill="#fff" stroke-width="0"/><path d="m285.32,86.12c-.67-.42-1.41-.57-3.44-.72-2.49-.18-2.49-.32-2.49-2.13,0-1.64.08-1.85,2.27-1.85,2.49,0,2.61.42,2.61,1.77v.82h2.26l-.02-.52c-.14-3.64-1-4.43-4.82-4.43s-4.65.94-4.65,4.38c0,2.91.83,3.92,3.41,4.13l1.45.13c1.38.11,2.01.29,2.21.64.1.17.14.49.14,1.27q0,2.4-2.35,2.4c-2.77,0-2.77-.21-2.77-1.87v-1.32h-2.26v1.59c0,2.98,1.19,3.94,4.89,3.94s4.86-1.06,4.86-4.55c0-1.71-.22-2.99-1.28-3.68Z" fill="#fff" stroke-width="0"/><path d="m302.45,79.21h-6.44v14.99h2.37v-5.45h3.29c3.06,0,4.19-1.31,4.19-4.84,0-2.19-.39-4.69-3.41-4.69Zm-.61,7.19h-3.46v-4.85h3.67c1.08,0,1.45,0,1.45,2.39s-.41,2.46-1.66,2.46Z" fill="#fff" stroke-width="0"/><path d="m320.39,79.06c-2.22,0-3.44.29-4.24,1-.87.77-1.24,2.05-1.24,4.28v4.72c0,4.1,1.22,5.28,5.45,5.28,2.25,0,3.44-.28,4.24-1.01.88-.78,1.26-2.06,1.26-4.27v-4.72c0-2.03-.32-3.28-1.03-4.07-.8-.87-2.04-1.21-4.44-1.21Zm3.1,5.36v4.55c0,2.86-.17,3.03-3.1,3.03s-3.11-.17-3.11-3.03v-4.55c0-2.85.17-3.02,3.11-3.02s3.1.17,3.1,3.02Z" fill="#fff" stroke-width="0"/><path d="m345.62,83.76c0-3.36-1.02-4.55-3.92-4.55h-6.27v14.99h2.37v-5.62h3.04c1.97.02,2.19.41,2.19,1.93v3.69h2.36v-4.32c-.01-.79-.14-1.82-.96-2.47.97-.72,1.19-1.96,1.19-3.65Zm-2.36-.08c0,2.37-.7,2.56-1.54,2.56h-3.92v-4.68h3.5c1.38,0,1.58.16,1.71.39.09.15.25.58.25,1.73Z" fill="#fff" stroke-width="0"/><polygon points="354.42 81.55 358.28 81.55 358.28 94.2 360.64 94.2 360.64 81.55 364.51 81.55 364.51 79.21 354.42 79.21 354.42 81.55" fill="#fff" stroke-width="0"/><path d="m381.57,86.12c-.66-.42-1.4-.57-3.44-.72-2.49-.18-2.49-.32-2.49-2.13,0-1.64.08-1.85,2.27-1.85,2.49,0,2.61.42,2.61,1.77v.82h2.26l-.02-.52c-.14-3.64-1-4.43-4.82-4.43s-4.65.94-4.65,4.38c0,2.91.83,3.92,3.41,4.13l1.45.13c1.38.11,2.01.29,2.21.64.1.17.14.49.14,1.27q0,2.4-2.35,2.4c-2.77,0-2.77-.21-2.77-1.87v-1.32h-2.26v1.59c0,2.98,1.19,3.94,4.89,3.94s4.86-1.06,4.86-4.55c0-1.71-.22-2.99-1.29-3.67Z" fill="#fff" stroke-width="0"/><polygon points="124.51 93.69 153.25 93.69 160.24 79.72 131.5 79.72 124.51 93.69" fill="#fff" stroke-width="0"/></g></svg>